<svg version="1.1" id="Layer_1" xmlns="http://www.w3.org/2000/svg" xmlns:xlink="http://www.w3.org/1999/xlink" x="0px" y="0px"
	 width="100%" viewBox="0 0 1076 348" enable-background="new 0 0 1076 348" xml:space="preserve">
<path fill="#DC4345" opacity="1.000000" stroke="none" 
	d="
M1076.000000,349.000000 
	C718.302429,349.000000 360.604828,349.000000 2.494637,348.765228 
	C2.082009,348.530457 2.187295,348.065582 2.405637,348.045410 
	C2.623979,348.025208 3.060659,347.981537 3.511205,347.989624 
	C344.120667,347.999084 684.279541,348.000916 1024.438477,348.000458 
	C1041.271362,348.000458 1058.104126,347.980743 1075.158325,347.992493 
	C1075.379639,348.014801 1075.823242,348.048950 1075.875366,348.285217 
	C1075.927490,348.521515 1076.000000,349.000000 1076.000000,349.000000 
z"/>
<path fill="#D94344" opacity="1.000000" stroke="none" 
	d="
M2.000000,1.000000 
	C359.697601,1.000000 717.395203,1.000000 1075.506592,1.239113 
	C1075.920410,1.478226 1075.812866,1.950999 1075.591309,1.969619 
	C1075.369629,1.988239 1074.926636,2.031124 1074.477295,2.020950 
	C725.210144,2.006952 376.392334,2.002916 27.574507,2.000608 
	C19.408291,2.000554 11.242074,2.019927 2.852451,2.003615 
	C2.629046,1.976991 2.181212,1.933168 2.126027,1.701795 
	C2.070843,1.470422 2.000000,1.000000 2.000000,1.000000 
z"/>
<path fill="#FF9C9F" opacity="1.000000" stroke="none" 
	d="
M1075.812866,1.951001 
	C1075.812866,1.950999 1075.920410,1.478226 1075.960205,1.239106 
	C1076.333374,2.499986 1076.957520,3.999802 1076.958496,5.500012 
	C1077.005859,80.333336 1077.000000,155.166672 1077.000000,230.000000 
	C1077.000000,269.666656 1077.000000,309.333344 1076.500000,349.000000 
	C1076.000000,349.000000 1075.927490,348.521515 1075.941895,347.813965 
	C1075.968018,232.883820 1075.979980,118.661201 1075.983887,4.438583 
	C1075.983887,3.609391 1075.872314,2.780196 1075.812866,1.951001 
z"/>
<path fill="#FF9F9F" opacity="1.000000" stroke="none" 
	d="
M1.500000,1.000000 
	C2.000000,1.000000 2.070843,1.470422 2.063224,2.175614 
	C2.040079,117.113258 2.024178,231.345703 2.016407,345.578156 
	C2.016351,346.407288 2.127873,347.236450 2.187295,348.065582 
	C2.187295,348.065582 2.082009,348.530457 2.041006,348.765228 
	C1.666669,347.500000 1.042652,346.000183 1.041699,344.499969 
	C0.994172,269.666687 1.000000,194.833359 1.000000,120.000038 
	C1.000000,80.333359 1.000000,40.666679 1.500000,1.000000 
z"/>
<path fill="#C52B2C" opacity="1.000000" stroke="none" 
	d="
M3.075857,2.030238 
	C11.242074,2.019927 19.408291,2.000554 27.574507,2.000608 
	C376.392334,2.002916 725.210144,2.006952 1074.495728,2.484109 
	C1074.954712,117.961700 1074.945801,232.965958 1074.937012,347.970215 
	C1058.104126,347.980743 1041.271362,348.000458 1024.438477,348.000458 
	C684.279541,348.000916 344.120667,347.999084 3.495617,347.524963 
	C3.022096,311.767731 3.002952,276.483215 3.009706,241.198685 
	C3.024965,161.475876 3.053012,81.753052 3.075857,2.030238 
M97.063576,126.437996 
	C95.107567,127.196304 93.151558,127.954613 90.561172,128.958847 
	C90.561172,100.992737 90.561172,73.711868 90.561172,45.705410 
	C82.173828,47.177689 74.384598,48.756935 66.525917,49.825375 
	C63.144257,50.285137 62.136318,51.526958 62.139767,54.867992 
	C62.221058,133.699356 62.224213,212.530823 62.140907,291.362183 
	C62.137516,294.572815 63.206749,296.010956 66.201210,297.071777 
	C81.467712,302.479950 97.119293,304.836609 113.307434,304.064026 
	C139.911575,302.794312 158.722107,289.661346 166.868057,264.391632 
	C177.798706,230.483459 177.734299,196.031235 166.819382,162.185349 
	C155.430740,126.870453 124.575172,118.816620 97.063576,126.437996 
M598.098083,272.499969 
	C598.098083,197.085358 598.098083,121.670753 598.098083,45.706501 
	C589.580261,47.209862 581.776550,48.827148 573.896484,49.865147 
	C570.535034,50.307930 569.943481,51.705307 569.960083,54.673748 
	C570.061584,72.830643 570.006287,90.988411 570.003845,109.145882 
	C570.002991,115.592888 570.003723,122.039894 570.003723,128.830032 
	C568.932678,128.526611 568.295349,128.423965 567.723267,128.172745 
	C544.099731,117.799019 508.413574,123.274719 494.312897,159.926025 
	C489.479828,172.488480 487.351166,185.589874 486.555511,198.926529 
	C485.239410,220.986908 485.967499,242.902893 493.166046,264.075806 
	C499.960236,284.059296 512.794189,297.836487 534.156616,302.243683 
	C554.973083,306.538208 575.215576,303.858429 594.954712,296.623779 
	C596.374939,296.103271 597.853210,293.627594 597.948547,291.982391 
	C598.304443,285.839294 598.095276,279.663483 598.098083,272.499969 
M939.451172,225.072601 
	C956.156860,247.579163 971.088501,271.168976 983.219360,296.484436 
	C983.863098,297.827850 985.226501,299.784851 986.299744,299.814178 
	C995.853210,300.075195 1005.416809,299.966064 1015.822205,299.966064 
	C1000.666504,266.131897 981.799988,235.718872 959.348816,208.193436 
	C976.426697,181.677643 993.319336,155.449539 1010.980591,128.028000 
	C1000.016479,128.028000 990.918396,127.919342 981.829529,128.159195 
	C980.631531,128.190826 979.151306,129.789917 978.356934,131.021255 
	C965.908569,150.316132 953.588318,169.693665 941.142761,188.990402 
	C938.586670,192.953552 935.640564,196.665131 932.874207,200.492645 
	C932.546082,200.369415 932.218018,200.246185 931.889893,200.122955 
	C931.889893,148.900009 931.889893,97.677048 931.889893,45.719421 
	C923.817139,47.128666 916.376160,48.720905 908.852539,49.626011 
	C904.643677,50.132336 903.483948,51.642929 903.491455,55.883564 
	C903.632874,135.207230 903.599243,214.531189 903.602295,293.855103 
	C903.602356,295.798065 903.602356,297.741028 903.602356,299.634949 
	C913.345276,299.634949 922.422241,299.634949 932.143433,299.634949 
	C932.143433,271.964081 932.143433,244.655579 932.143433,216.116898 
	C935.014526,219.624725 937.013794,222.067352 939.451172,225.072601 
M206.002991,207.542389 
	C206.047287,213.706863 205.809830,219.888763 206.189911,226.032471 
	C207.233932,242.908096 209.891891,259.431244 217.788193,274.707184 
	C230.637421,299.564911 254.926865,309.136597 281.928986,302.111420 
	C301.688446,296.970581 312.904755,282.342651 318.760925,263.891327 
	C329.272675,230.771530 328.991760,197.302765 318.705536,164.130905 
	C314.740265,151.343353 307.656555,140.268158 296.328918,132.475494 
	C269.114532,113.753731 231.876480,124.377907 216.971085,155.180801 
	C209.129761,171.385376 206.724945,188.804810 206.002991,207.542389 
M661.563721,288.932892 
	C677.188354,303.971649 696.424500,306.014313 716.500671,303.271637 
	C724.093140,302.234406 731.394897,298.865540 738.716370,296.244354 
	C739.973022,295.794464 741.654785,293.570129 741.450134,292.483856 
	C740.170654,285.691742 738.411255,278.990082 736.725708,271.900757 
	C725.537842,277.322235 714.404846,280.192871 702.429565,279.097260 
	C692.368835,278.176819 684.185547,273.956116 678.571655,265.518738 
	C669.988892,252.619293 669.034241,237.875870 668.395630,222.345581 
	C695.749390,222.345581 722.627808,222.345581 749.924927,222.345581 
	C749.924927,212.577621 750.257385,203.441101 749.846619,194.338104 
	C749.237244,180.832413 747.252136,167.511993 742.296692,154.802780 
	C731.735046,127.715752 704.181152,115.983192 677.292419,127.454628 
	C659.490295,135.049500 649.982117,149.793732 645.084900,167.706955 
	C638.127625,193.155441 637.977905,219.032654 641.683594,244.991745 
	C644.008362,261.276489 649.207581,276.362518 661.563721,288.932892 
M375.139099,295.786469 
	C383.102356,273.729675 393.571228,252.870346 405.082855,231.868790 
	C406.004761,233.338120 406.561401,234.133957 407.026581,234.980087 
	C418.007050,254.953186 428.789276,275.016541 436.394989,296.607819 
	C436.873016,297.964874 438.600128,299.796600 439.799713,299.837616 
	C448.085815,300.120667 456.386139,299.986633 465.320282,299.986633 
	C464.520203,297.777100 464.056091,296.026093 463.281311,294.425476 
	C450.175446,267.351654 437.097168,240.263962 423.806183,213.281097 
	C422.249786,210.121323 422.016632,207.805984 423.711517,204.604111 
	C436.315857,180.792770 448.705414,156.867706 461.153473,132.973679 
	C461.899445,131.541748 462.569031,130.070007 463.575256,127.996109 
	C456.958130,127.996109 450.943573,128.543839 445.074646,127.853401 
	C438.191895,127.043678 434.886505,129.844055 431.998627,135.877304 
	C423.971130,152.647903 415.217255,169.070831 406.514313,186.092697 
	C405.099823,183.404144 403.913910,181.221497 402.792053,179.006454 
	C394.825897,163.277725 386.905365,147.525711 378.862183,131.836517 
	C378.111237,130.371689 376.649017,128.241959 375.453461,128.199188 
	C366.740997,127.887566 358.012207,128.031464 348.674896,128.031464 
	C349.808197,130.417038 350.529083,132.057724 351.350983,133.646133 
	C363.578308,157.275894 375.733521,180.943802 388.145966,204.476013 
	C390.071075,208.125763 390.037537,210.811493 388.139069,214.495773 
	C376.184784,237.695206 364.462677,261.015656 352.852203,284.389679 
	C350.454956,289.215820 348.852173,294.436584 346.679199,299.997528 
	C355.348389,299.997528 363.173157,300.160004 370.978516,299.843353 
	C372.335388,299.788330 373.610199,297.710419 375.139099,295.786469 
M839.119690,265.343353 
	C836.839478,271.412659 833.075073,276.550171 826.681824,278.005615 
	C820.802856,279.343964 814.365173,280.269043 808.531189,279.275970 
	C800.201233,277.858093 792.197205,274.525299 783.750610,271.916687 
	C782.882751,275.283356 781.914001,278.960510 780.989746,282.648834 
	C780.035278,286.458008 779.124084,290.278015 778.233215,293.932343 
	C793.419800,302.823547 813.053711,306.178284 830.278015,303.270386 
	C842.628296,301.185394 852.998962,295.890167 860.399109,285.531433 
	C876.591797,262.864868 871.331421,229.135818 848.830872,212.869583 
	C841.698425,207.713364 833.709045,203.730927 826.657043,198.479141 
	C821.530884,194.661514 816.448486,190.227066 812.865723,185.021973 
	C807.041931,176.561157 807.326050,166.909500 812.061340,157.961502 
	C816.581360,149.420258 824.821411,146.888504 833.794495,147.964600 
	C841.426636,148.879868 848.907471,151.057281 856.781006,152.746155 
	C858.330994,147.186432 860.292786,140.839844 861.731689,134.376862 
	C862.003540,133.155975 860.553833,130.714798 859.292908,130.119537 
	C847.084351,124.356003 834.137329,122.470932 820.827698,124.371986 
	C804.761230,126.666809 792.521179,134.771423 785.619141,149.811218 
	C775.903137,170.982620 781.845459,197.318130 800.088257,211.822540 
	C807.472046,217.693283 815.830017,222.358261 823.847961,227.407928 
	C838.872253,236.870117 843.747559,248.393402 839.119690,265.343353 
z"/>
<path fill="#AE3336" opacity="1.000000" stroke="none" 
	d="
M1075.158325,347.992493 
	C1074.945801,232.965958 1074.954712,117.961700 1074.945068,2.494284 
	C1074.926636,2.031124 1075.369629,1.988239 1075.591309,1.969621 
	C1075.872314,2.780196 1075.983887,3.609391 1075.983887,4.438583 
	C1075.979980,118.661201 1075.968018,232.883820 1075.889893,347.577698 
	C1075.823242,348.048950 1075.379639,348.014801 1075.158325,347.992493 
z"/>
<path fill="#AC3435" opacity="1.000000" stroke="none" 
	d="
M2.852451,2.003615 
	C3.053012,81.753052 3.024965,161.475876 3.009706,241.198685 
	C3.002952,276.483215 3.022096,311.767731 3.045071,347.516907 
	C3.060659,347.981537 2.623979,348.025208 2.405637,348.045410 
	C2.127873,347.236450 2.016351,346.407288 2.016407,345.578156 
	C2.024178,231.345703 2.040079,117.113258 2.118409,2.406987 
	C2.181212,1.933168 2.629046,1.976991 2.852451,2.003615 
z"/>
<path fill="#FDF9F9" opacity="1.000000" stroke="none" 
	d="
M97.437683,126.296219 
	C124.575172,118.816620 155.430740,126.870453 166.819382,162.185349 
	C177.734299,196.031235 177.798706,230.483459 166.868057,264.391632 
	C158.722107,289.661346 139.911575,302.794312 113.307434,304.064026 
	C97.119293,304.836609 81.467712,302.479950 66.201210,297.071777 
	C63.206749,296.010956 62.137516,294.572815 62.140907,291.362183 
	C62.224213,212.530823 62.221058,133.699356 62.139767,54.867992 
	C62.136318,51.526958 63.144257,50.285137 66.525917,49.825375 
	C74.384598,48.756935 82.173828,47.177689 90.561172,45.705410 
	C90.561172,73.711868 90.561172,100.992737 90.561172,128.958847 
	C93.151558,127.954613 95.107567,127.196304 97.437683,126.296219 
M102.395325,149.530487 
	C100.791992,149.959915 99.201767,150.448288 97.582932,150.807922 
	C92.333145,151.974197 90.249100,154.743607 90.426086,160.547348 
	C90.903076,176.188385 90.588089,191.853546 90.588272,207.509140 
	C90.588531,229.160492 90.535049,250.812241 90.691925,272.462463 
	C90.704727,274.228790 91.864983,277.302521 92.981903,277.548981 
	C111.509766,281.637512 130.538055,280.050568 138.686874,257.065125 
	C142.130280,247.352325 143.475021,236.682083 144.367264,226.325867 
	C145.886124,208.696442 145.374680,190.995667 140.406448,173.823715 
	C134.622269,153.831543 123.911484,146.956589 102.395325,149.530487 
z"/>
<path fill="#FEFBFB" opacity="1.000000" stroke="none" 
	d="
M598.098083,272.999939 
	C598.095276,279.663483 598.304443,285.839294 597.948547,291.982391 
	C597.853210,293.627594 596.374939,296.103271 594.954712,296.623779 
	C575.215576,303.858429 554.973083,306.538208 534.156616,302.243683 
	C512.794189,297.836487 499.960236,284.059296 493.166046,264.075806 
	C485.967499,242.902893 485.239410,220.986908 486.555511,198.926529 
	C487.351166,185.589874 489.479828,172.488480 494.312897,159.926025 
	C508.413574,123.274719 544.099731,117.799019 567.723267,128.172745 
	C568.295349,128.423965 568.932678,128.526611 570.003723,128.830032 
	C570.003723,122.039894 570.002991,115.592888 570.003845,109.145882 
	C570.006287,90.988411 570.061584,72.830643 569.960083,54.673748 
	C569.943481,51.705307 570.535034,50.307930 573.896484,49.865147 
	C581.776550,48.827148 589.580261,47.209862 598.098083,45.706501 
	C598.098083,121.670753 598.098083,197.085358 598.098083,272.999939 
M570.006226,263.487000 
	C570.005859,228.653778 569.913818,193.820023 570.122559,158.988052 
	C570.148376,154.681946 568.675171,152.729645 564.845215,151.446976 
	C544.927185,144.776291 527.376160,149.354828 520.409363,172.453644 
	C519.881531,174.203613 519.324097,175.954880 518.958191,177.741928 
	C514.358093,200.211761 514.224731,222.833939 518.271179,245.292908 
	C522.915710,271.071991 536.556946,281.417053 560.820984,278.963257 
	C570.008911,278.034088 570.008850,278.034119 570.006348,268.981110 
	C570.005981,267.481110 570.006226,265.981140 570.006226,263.487000 
z"/>
<path fill="#FEFBFA" opacity="1.000000" stroke="none" 
	d="
M939.232056,224.791290 
	C937.013794,222.067352 935.014526,219.624725 932.143433,216.116898 
	C932.143433,244.655579 932.143433,271.964081 932.143433,299.634949 
	C922.422241,299.634949 913.345276,299.634949 903.602356,299.634949 
	C903.602356,297.741028 903.602356,295.798065 903.602295,293.855103 
	C903.599243,214.531189 903.632874,135.207230 903.491455,55.883564 
	C903.483948,51.642929 904.643677,50.132336 908.852539,49.626011 
	C916.376160,48.720905 923.817139,47.128666 931.889893,45.719421 
	C931.889893,97.677048 931.889893,148.900009 931.889893,200.122955 
	C932.218018,200.246185 932.546082,200.369415 932.874207,200.492645 
	C935.640564,196.665131 938.586670,192.953552 941.142761,188.990402 
	C953.588318,169.693665 965.908569,150.316132 978.356934,131.021255 
	C979.151306,129.789917 980.631531,128.190826 981.829529,128.159195 
	C990.918396,127.919342 1000.016479,128.028000 1010.980591,128.028000 
	C993.319336,155.449539 976.426697,181.677643 959.348816,208.193436 
	C981.799988,235.718872 1000.666504,266.131897 1015.822205,299.966064 
	C1005.416809,299.966064 995.853210,300.075195 986.299744,299.814178 
	C985.226501,299.784851 983.863098,297.827850 983.219360,296.484436 
	C971.088501,271.168976 956.156860,247.579163 939.232056,224.791290 
z"/>
<path fill="#FEFBFB" opacity="1.000000" stroke="none" 
	d="
M206.012192,207.050964 
	C206.724945,188.804810 209.129761,171.385376 216.971085,155.180801 
	C231.876480,124.377907 269.114532,113.753731 296.328918,132.475494 
	C307.656555,140.268158 314.740265,151.343353 318.705536,164.130905 
	C328.991760,197.302765 329.272675,230.771530 318.760925,263.891327 
	C312.904755,282.342651 301.688446,296.970581 281.928986,302.111420 
	C254.926865,309.136597 230.637421,299.564911 217.788193,274.707184 
	C209.891891,259.431244 207.233932,242.908096 206.189911,226.032471 
	C205.809830,219.888763 206.047287,213.706863 206.012192,207.050964 
M240.443146,255.913559 
	C242.674973,260.350922 244.379318,265.165833 247.235428,269.156403 
	C256.605774,282.248779 274.470703,282.735565 284.289856,269.957764 
	C287.740326,265.467590 290.399292,259.928009 291.891846,254.451202 
	C298.163055,231.439743 298.082703,207.979416 294.245453,184.665665 
	C292.846771,176.167831 290.014435,167.345276 285.596497,160.022018 
	C276.441742,144.847000 256.369141,144.955353 246.677261,159.801422 
	C243.208710,165.114594 240.452103,171.349503 239.146866,177.538345 
	C233.688004,203.421783 233.677170,229.374939 240.443146,255.913559 
z"/>
<path fill="#FEFAFA" opacity="1.000000" stroke="none" 
	d="
M661.312439,288.685242 
	C649.207581,276.362518 644.008362,261.276489 641.683594,244.991745 
	C637.977905,219.032654 638.127625,193.155441 645.084900,167.706955 
	C649.982117,149.793732 659.490295,135.049500 677.292419,127.454628 
	C704.181152,115.983192 731.735046,127.715752 742.296692,154.802780 
	C747.252136,167.511993 749.237244,180.832413 749.846619,194.338104 
	C750.257385,203.441101 749.924927,212.577621 749.924927,222.345581 
	C722.627808,222.345581 695.749390,222.345581 668.395630,222.345581 
	C669.034241,237.875870 669.988892,252.619293 678.571655,265.518738 
	C684.185547,273.956116 692.368835,278.176819 702.429565,279.097260 
	C714.404846,280.192871 725.537842,277.322235 736.725708,271.900757 
	C738.411255,278.990082 740.170654,285.691742 741.450134,292.483856 
	C741.654785,293.570129 739.973022,295.794464 738.716370,296.244354 
	C731.394897,298.865540 724.093140,302.234406 716.500671,303.271637 
	C696.424500,306.014313 677.188354,303.971649 661.312439,288.685242 
M698.499756,199.318283 
	C705.761658,199.318283 713.023560,199.318283 720.702576,199.318283 
	C720.536255,186.712402 719.903992,174.869705 716.342102,163.332153 
	C713.737122,154.893799 709.001343,148.799652 699.581055,147.900360 
	C689.181152,146.907562 681.204834,150.657715 677.322998,160.179291 
	C673.917480,168.532639 672.080017,177.562790 669.989563,186.398010 
	C669.029175,190.456848 669.121521,194.764740 668.703552,199.318314 
	C678.908142,199.318314 688.203918,199.318314 698.499756,199.318283 
z"/>
<path fill="#FEFAFA" opacity="1.000000" stroke="none" 
	d="
M375.031006,296.176666 
	C373.610199,297.710419 372.335388,299.788330 370.978516,299.843353 
	C363.173157,300.160004 355.348389,299.997528 346.679199,299.997528 
	C348.852173,294.436584 350.454956,289.215820 352.852203,284.389679 
	C364.462677,261.015656 376.184784,237.695206 388.139069,214.495773 
	C390.037537,210.811493 390.071075,208.125763 388.145966,204.476013 
	C375.733521,180.943802 363.578308,157.275894 351.350983,133.646133 
	C350.529083,132.057724 349.808197,130.417038 348.674896,128.031464 
	C358.012207,128.031464 366.740997,127.887566 375.453461,128.199188 
	C376.649017,128.241959 378.111237,130.371689 378.862183,131.836517 
	C386.905365,147.525711 394.825897,163.277725 402.792053,179.006454 
	C403.913910,181.221497 405.099823,183.404144 406.514313,186.092697 
	C415.217255,169.070831 423.971130,152.647903 431.998627,135.877304 
	C434.886505,129.844055 438.191895,127.043678 445.074646,127.853401 
	C450.943573,128.543839 456.958130,127.996109 463.575256,127.996109 
	C462.569031,130.070007 461.899445,131.541748 461.153473,132.973679 
	C448.705414,156.867706 436.315857,180.792770 423.711517,204.604111 
	C422.016632,207.805984 422.249786,210.121323 423.806183,213.281097 
	C437.097168,240.263962 450.175446,267.351654 463.281311,294.425476 
	C464.056091,296.026093 464.520203,297.777100 465.320282,299.986633 
	C456.386139,299.986633 448.085815,300.120667 439.799713,299.837616 
	C438.600128,299.796600 436.873016,297.964874 436.394989,296.607819 
	C428.789276,275.016541 418.007050,254.953186 407.026581,234.980087 
	C406.561401,234.133957 406.004761,233.338120 405.082855,231.868790 
	C393.571228,252.870346 383.102356,273.729675 375.031006,296.176666 
z"/>
<path fill="#FEFAFA" opacity="1.000000" stroke="none" 
	d="
M839.255737,264.968964 
	C843.747559,248.393402 838.872253,236.870117 823.847961,227.407928 
	C815.830017,222.358261 807.472046,217.693283 800.088257,211.822540 
	C781.845459,197.318130 775.903137,170.982620 785.619141,149.811218 
	C792.521179,134.771423 804.761230,126.666809 820.827698,124.371986 
	C834.137329,122.470932 847.084351,124.356003 859.292908,130.119537 
	C860.553833,130.714798 862.003540,133.155975 861.731689,134.376862 
	C860.292786,140.839844 858.330994,147.186432 856.781006,152.746155 
	C848.907471,151.057281 841.426636,148.879868 833.794495,147.964600 
	C824.821411,146.888504 816.581360,149.420258 812.061340,157.961502 
	C807.326050,166.909500 807.041931,176.561157 812.865723,185.021973 
	C816.448486,190.227066 821.530884,194.661514 826.657043,198.479141 
	C833.709045,203.730927 841.698425,207.713364 848.830872,212.869583 
	C871.331421,229.135818 876.591797,262.864868 860.399109,285.531433 
	C852.998962,295.890167 842.628296,301.185394 830.278015,303.270386 
	C813.053711,306.178284 793.419800,302.823547 778.233215,293.932343 
	C779.124084,290.278015 780.035278,286.458008 780.989746,282.648834 
	C781.914001,278.960510 782.882751,275.283356 783.750610,271.916687 
	C792.197205,274.525299 800.201233,277.858093 808.531189,279.275970 
	C814.365173,280.269043 820.802856,279.343964 826.681824,278.005615 
	C833.075073,276.550171 836.839478,271.412659 839.255737,264.968964 
z"/>
<path fill="#C42C2D" opacity="1.000000" stroke="none" 
	d="
M102.812889,149.405060 
	C123.911484,146.956589 134.622269,153.831543 140.406448,173.823715 
	C145.374680,190.995667 145.886124,208.696442 144.367264,226.325867 
	C143.475021,236.682083 142.130280,247.352325 138.686874,257.065125 
	C130.538055,280.050568 111.509766,281.637512 92.981903,277.548981 
	C91.864983,277.302521 90.704727,274.228790 90.691925,272.462463 
	C90.535049,250.812241 90.588531,229.160492 90.588272,207.509140 
	C90.588089,191.853546 90.903076,176.188385 90.426086,160.547348 
	C90.249100,154.743607 92.333145,151.974197 97.582932,150.807922 
	C99.201767,150.448288 100.791992,149.959915 102.812889,149.405060 
z"/>
<path fill="#C32C2D" opacity="1.000000" stroke="none" 
	d="
M570.006226,263.984070 
	C570.006226,265.981140 570.005981,267.481110 570.006348,268.981110 
	C570.008850,278.034119 570.008911,278.034088 560.820984,278.963257 
	C536.556946,281.417053 522.915710,271.071991 518.271179,245.292908 
	C514.224731,222.833939 514.358093,200.211761 518.958191,177.741928 
	C519.324097,175.954880 519.881531,174.203613 520.409363,172.453644 
	C527.376160,149.354828 544.927185,144.776291 564.845215,151.446976 
	C568.675171,152.729645 570.148376,154.681946 570.122559,158.988052 
	C569.913818,193.820023 570.005859,228.653778 570.006226,263.984070 
z"/>
<path fill="#C42C2D" opacity="1.000000" stroke="none" 
	d="
M240.295654,255.543564 
	C233.677170,229.374939 233.688004,203.421783 239.146866,177.538345 
	C240.452103,171.349503 243.208710,165.114594 246.677261,159.801422 
	C256.369141,144.955353 276.441742,144.847000 285.596497,160.022018 
	C290.014435,167.345276 292.846771,176.167831 294.245453,184.665665 
	C298.082703,207.979416 298.163055,231.439743 291.891846,254.451202 
	C290.399292,259.928009 287.740326,265.467590 284.289856,269.957764 
	C274.470703,282.735565 256.605774,282.248779 247.235428,269.156403 
	C244.379318,265.165833 242.674973,260.350922 240.295654,255.543564 
z"/>
<path fill="#C32D2E" opacity="1.000000" stroke="none" 
	d="
M697.999756,199.318298 
	C688.203918,199.318314 678.908142,199.318314 668.703552,199.318314 
	C669.121521,194.764740 669.029175,190.456848 669.989563,186.398010 
	C672.080017,177.562790 673.917480,168.532639 677.322998,160.179291 
	C681.204834,150.657715 689.181152,146.907562 699.581055,147.900360 
	C709.001343,148.799652 713.737122,154.893799 716.342102,163.332153 
	C719.903992,174.869705 720.536255,186.712402 720.702576,199.318283 
	C713.023560,199.318283 705.761658,199.318283 697.999756,199.318298 
z"/>
</svg>